<svg xmlns="http://www.w3.org/2000/svg" width="32" height="32" id="network"><g stroke="#105286" stroke-miterlimit="2.948" transform="translate(0 -1020.362)"><ellipse cx="14.865" cy="1027.237" fill="#ee7581" stroke-dashoffset="3.2" color="#000" style="isolation:auto;mix-blend-mode:normal" overflow="visible" rx="3.377" ry="3.375"></ellipse><ellipse cx="5.434" cy="1035.856" fill="#406b95" stroke-dashoffset="3.2" color="#000" style="isolation:auto;mix-blend-mode:normal" overflow="visible" rx="2.018" ry="2.017"></ellipse><circle cx="12.295" cy="1046.748" r="1.614" fill="#ee7581" stroke-dashoffset="3.2" color="#000" style="isolation:auto;mix-blend-mode:normal" overflow="visible"></circle><path fill="none" d="m6.24 1034.243 5.652-4.841m-.808 16.137-4.843-8.069m.807-1.076 6.982 1.187m-.113 9.183 5.081-.304"></path><ellipse cx="15.605" cy="1037.808" fill="#406b95" rx="1.801" ry="1.799"></ellipse><path fill="none" d="m12.832 1045.166 2.395-5.388"></path><ellipse cx="-25.482" cy="1035.856" fill="#406b95" stroke-dashoffset="3.2" color="#000" style="isolation:auto;mix-blend-mode:normal" overflow="visible" rx="2.018" ry="2.017" transform="scale(-1 1)"></ellipse><circle cx="-20.886" cy="1046.748" r="1.614" fill="#ee7581" stroke-dashoffset="3.2" color="#000" style="isolation:auto;mix-blend-mode:normal" overflow="visible" transform="scale(-1 1)"></circle><path fill="none" d="m24.675 1034.243-6.531-5.556m3.581 16.473 3.455-7.406m-1.313-1.36-6.981 1.187m2.713 8.343-2.774-6.746"></path></g></svg>