<?xml version="1.0" encoding="UTF-8" standalone="no"?>
<!-- Created with Inkscape (http://www.inkscape.org/) -->

<svg
   version="1.1"
   id="svg277"
   width="16"
   height="16"
   viewBox="0 0 16 16"
   sodipodi:docname="MF-HA.svg"
   inkscape:version="1.2.1 (9c6d41e410, 2022-07-14)"
   inkscape:export-filename="MF-HA.png"
   inkscape:export-xdpi="96"
   inkscape:export-ydpi="96"
   xml:space="preserve"
   xmlns:inkscape="http://www.inkscape.org/namespaces/inkscape"
   xmlns:sodipodi="http://sodipodi.sourceforge.net/DTD/sodipodi-0.dtd"
   xmlns="http://www.w3.org/2000/svg"
   xmlns:svg="http://www.w3.org/2000/svg"><defs
     id="defs281"><linearGradient
       id="linearGradient1113"
       inkscape:swatch="solid"><stop
         style="stop-color:#000000;stop-opacity:1;"
         offset="0"
         id="stop1111" /></linearGradient><inkscape:perspective
       sodipodi:type="inkscape:persp3d"
       inkscape:vp_x="0 : 8 : 1"
       inkscape:vp_y="0 : 1000 : 0"
       inkscape:vp_z="16 : 8 : 1"
       inkscape:persp3d-origin="8 : 5.3333333 : 1"
       id="perspective18586" /><linearGradient
       id="linearGradient1287"
       inkscape:swatch="solid"><stop
         style="stop-color:#000000;stop-opacity:1;"
         offset="0"
         id="stop1285" /></linearGradient><linearGradient
       id="linearGradient1281"
       inkscape:swatch="solid"><stop
         style="stop-color:#000000;stop-opacity:1;"
         offset="0"
         id="stop1279" /></linearGradient></defs><sodipodi:namedview
     id="namedview279"
     pagecolor="#ffffff"
     bordercolor="#000000"
     borderopacity="0.25"
     inkscape:showpageshadow="2"
     inkscape:pageopacity="0.0"
     inkscape:pagecheckerboard="0"
     inkscape:deskcolor="#d1d1d1"
     showgrid="true"
     inkscape:zoom="11.313708"
     inkscape:cx="15.158602"
     inkscape:cy="2.9610097"
     inkscape:window-width="1864"
     inkscape:window-height="1259"
     inkscape:window-x="284"
     inkscape:window-y="192"
     inkscape:window-maximized="0"
     inkscape:current-layer="svg277"
     showguides="false"
     inkscape:lockguides="true"><inkscape:grid
       type="xygrid"
       id="grid1356"
       originx="0"
       originy="0" /></sodipodi:namedview><g
     inkscape:groupmode="layer"
     inkscape:label="Image"
     id="g283"><path
       id="path18578"
       style="fill:none;stroke:none;stroke-width:2.303;stroke-linejoin:round;stroke-miterlimit:0;stroke-dasharray:none;stroke-opacity:1;paint-order:stroke fill markers"
       transform="translate(0.8125,-5.8125)"
       d="m -6.125,1.4160156 c -5.819986,0 -11.640306,0.1266337 -11.892578,0.3789063 -0.504545,0.5045452 -0.504545,23.2806111 0,23.7851561 0.504545,0.504545 23.2806109,0.504545 23.7851561,0 0.5045453,-0.504545 0.5045453,-23.2806109 0,-23.7851561 C 5.5153055,1.5426493 -0.30501362,1.4160156 -6.125,1.4160156 Z M -8.2988281,14.757812 c 0.077999,0.0044 0.1513456,0.0858 0.1425781,0.240235 l -0.037109,0.65625 c -0.028384,0.479821 -0.05081,0.873297 -0.082031,1.351562 -0.010981,0.168227 -0.021414,0.335883 -0.035156,0.503907 -0.010022,0.12254 -0.030041,0.370393 -0.068359,0.509765 -0.012133,0.04413 -0.033869,0.08442 -0.050781,0.126953 -0.1143216,0.28746 -0.1957348,0.110236 -0.2441406,-0.195312 -0.00129,-0.0081 -0.00496,-0.01524 -0.00391,-0.02344 0.00639,-0.04962 0.019231,-0.09879 0.025391,-0.148437 0.02972,-0.239679 0.049796,-0.569845 0.064453,-0.794922 0.031818,-0.488605 0.053,-0.856876 0.082031,-1.347656 l 0.037109,-0.65625 c 0.00877,-0.154431 0.091923,-0.227085 0.1699219,-0.222657 z" /><g
       id="g18632"
       transform="translate(0,0.28125012)"><g
         id="g18694" /></g><g
       id="g18897"
       transform="matrix(0.10987052,0,0,0.10987052,12.549343,12.740319)" /></g><path
     id="path3359"
     style="fill:#eaeaea;fill-opacity:1;stroke:#000000;stroke-width:1.03137;stroke-linejoin:round;stroke-miterlimit:1;stroke-dasharray:none;stroke-opacity:1;paint-order:normal"
     d="m 7.9999782,3.0103352 c -2.452653,0 -4.9059797,0.1105496 -5.2001038,0.3333883 C 2.2829103,3.7353936 2.2209986,9.1785377 2.6126706,10.794655 a 5.4101073,2.0181792 0 0 0 -0.0224,0.145981 5.4101073,2.0181792 0 0 0 5.409708,2.018084 5.4101073,2.0181792 0 0 0 5.4097074,-2.018084 5.4101073,2.0181792 0 0 0 -0.0176,-0.163736 5.4101073,2.0181792 0 0 0 0,-0.002 C 13.778124,9.1328747 13.714799,3.7336914 13.200082,3.3437235 12.905957,3.1208848 10.452631,3.0103352 7.9999782,3.0103352 Z" /><path
     id="path3359-4"
     style="fill:#ffbf4d;fill-opacity:1;stroke:none;stroke-width:0.990305;stroke-linejoin:round;stroke-miterlimit:1;stroke-dasharray:none;stroke-opacity:1;paint-order:normal"
     d="m 6.6382661,2.5401159 c 0.2893251,-1.0896266 -3.15413,0.141214 -3.3673198,0.316406 -0.4766209,0.39167 -0.5339743,5.835057 -0.1728678,7.4511721 -0.010988,0.04871 -0.00197,0.488201 -0.00418,0.53711 0.00226,0.891313 1.4336927,1.285854 3.544371,1.541015 0,0 -1.2919745,-4.9800145 -3.4e-6,-9.8457031 z"
     sodipodi:nodetypes="sscccs" /><ellipse
     style="fill:#eaeaea;fill-opacity:1;stroke:#000000;stroke-width:1.08523;stroke-linejoin:round;stroke-miterlimit:1;stroke-dasharray:none;stroke-opacity:1;paint-order:normal"
     id="path3355"
     cx="8.0125055"
     cy="3.6187692"
     rx="5.2476959"
     ry="2.0211928" /><path
     style="fill:none;fill-opacity:1;stroke:none;stroke-width:1.2;stroke-linejoin:round;stroke-miterlimit:1;stroke-dasharray:none;stroke-opacity:1;paint-order:normal"
     id="path3490"
     d="m -4.8160668,9.1712861 c 0.1272256,0.7776447 0.07604,0.4965996 0.2376687,1.3377399 0.04355,0.226638 0.08525,0.453663 0.132593,0.679539 0.052762,0.25173 0.1092361,0.432238 0.1491644,0.67677 0.015524,0.09507 0.024785,0.191059 0.037178,0.286588 0.011041,0.09984 0.018934,0.200068 0.033123,0.299504 0.032978,0.231112 0.050712,0.309859 0.1344111,0.528925 0.02816,0.0737 0.06792,0.142621 0.095991,0.216357 0.054962,0.144372 0.05456,0.188084 0.078507,0.336592 3.62e-4,0.153658 0.00712,0.140749 -0.012399,0.270481 -0.010122,0.06728 -0.016275,0.06014 -0.019816,0.125216 -0.00244,0.04485 0.00107,0.09858 0.00303,0.143187 0.0011,0.01658 0.00219,0.03316 0.00329,0.04974 0,0 0.019956,-0.0013 0.019956,-0.0013 v 0 c -0.00109,-0.01644 -0.00218,-0.03287 -0.00327,-0.04931 -0.00187,-0.04225 -0.0054,-0.09739 -0.00314,-0.140017 0.00337,-0.06351 0.00985,-0.05841 0.019803,-0.125103 0.019757,-0.132401 0.012887,-0.119574 0.012287,-0.276077 -0.024555,-0.151263 -0.024014,-0.194495 -0.07997,-0.341512 -0.027835,-0.07313 -0.067313,-0.141459 -0.095287,-0.214536 -0.083233,-0.217428 -0.1007411,-0.29511 -0.133516,-0.52483 -0.014205,-0.09956 -0.022112,-0.19992 -0.033168,-0.29988 -0.012467,-0.09598 -0.021797,-0.192417 -0.0374,-0.287936 -0.040075,-0.245334 -0.096138,-0.423768 -0.1491462,-0.676677 -0.047335,-0.225841 -0.089028,-0.452829 -0.1325721,-0.679431 -0.1614607,-0.8402428 -0.1103553,-0.5596647 -0.2374186,-1.3360079 0,0 -0.019901,0.00199 -0.019901,0.00199 z" /><g
     id="g3841"
     transform="translate(-0.796875,6)"><g
       id="g3845"
       transform="translate(-0.46875,-0.12217486)"><path
         style="fill:none;fill-opacity:1;stroke:#000000;stroke-width:1.12258;stroke-linecap:round;stroke-linejoin:round;stroke-miterlimit:1;stroke-dasharray:none;stroke-opacity:1;paint-order:normal"
         d="M 11.933958,7.066042 11.753542,8.933958"
         id="path3811" /><path
         style="fill:none;fill-opacity:1;stroke:#000000;stroke-width:1.12258;stroke-linecap:round;stroke-linejoin:round;stroke-miterlimit:1;stroke-dasharray:none;stroke-opacity:1;paint-order:normal"
         d="M 6.597292,7.066042 6.777708,8.933958"
         id="path3811-6" /></g></g></svg>
